<svg height="512pt" viewBox="0 -43 512 512" width="512pt" xmlns="http://www.w3.org/2000/svg"><path d="m437 0h-362c-41.355469 0-75 33.644531-75 75v276.875c0 41.355469 33.644531 75 75 75h362c41.355469 0 75-33.644531 75-75v-276.875c0-41.355469-33.644531-75-75-75zm0 396.875h-362c-24.8125 0-45-20.1875-45-45v-273.507812l217.941406 138.789062c2.460938 1.566406 5.257813 2.347656 8.058594 2.347656s5.601562-.78125 8.058594-2.347656l217.941406-138.789062v273.507812c0 24.8125-20.1875 45-45 45zm36.757812-347.785156c-1.625.375-3.214843 1.007812-4.703124 1.957031l-213.054688 135.675781-213.054688-135.675781c-1.488281-.949219-3.078124-1.582031-4.703124-1.957031 8.15625-11.535156 21.585937-19.089844 36.757812-19.089844h362c15.171875 0 28.605469 7.554688 36.757812 19.089844zm0 0"/></svg>