<svg id="Layer_1" enable-background="new 0 0 54 60" height="19" viewBox="0 0 54 60" width="17" xmlns="http://www.w3.org/2000/svg"><path d="m53.03 53h-52c-.552 0-1-.448-1-1v-8c0-.552.448-1 1-1h52c.552 0 1 .448 1 1v8c0 .552-.448 1-1 1zm-51-2h50v-6h-50z"/><path d="m27.03 60c-4.411 0-8-3.589-8-8 0-.552.448-1 1-1h14c.552 0 1 .448 1 1 0 4.411-3.589 8-8 8zm-5.917-7c.478 2.834 2.949 5 5.917 5s5.439-2.166 5.917-5z"/><path d="m40.247 21c-5.79 0-10.5-4.71-10.5-10.5s4.71-10.5 10.5-10.5 10.5 4.71 10.5 10.5-4.711 10.5-10.5 10.5zm0-19c-4.687 0-8.5 3.813-8.5 8.5s3.813 8.5 8.5 8.5 8.5-3.813 8.5-8.5-3.813-8.5-8.5-8.5z"/><path d="m53.03 45h-52c-.383 0-.732-.219-.899-.563s-.124-.754.113-1.055l6.639-8.45c2.674-3.404 4.147-7.662 4.147-11.99v-6.942c0-4.558 1.97-8.918 5.404-11.965 3.423-3.037 7.996-4.464 12.544-3.918 2.096.252 4.101.931 5.959 2.017.287.167.472.466.493.798.022.332-.122.652-.384.855-2.097 1.627-3.3 4.074-3.3 6.712 0 4.687 3.813 8.5 8.5 8.5.517 0 1.054-.052 1.597-.155.293-.056.595.022.824.212s.362.473.362.771v3.115c0 4.328 1.473 8.586 4.147 11.99l6.64 8.45c.236.301.28.71.113 1.055s-.516.563-.899.563zm-49.943-2h47.885l-5.369-6.833c-2.95-3.754-4.574-8.452-4.574-13.226v-1.973c-6.184.475-11.284-4.422-11.283-10.469 0-2.752 1.058-5.335 2.945-7.282-1.26-.577-2.584-.951-3.952-1.115-4.042-.488-7.939.732-10.979 3.429-3.008 2.667-4.732 6.483-4.732 10.469v6.942c0 4.774-1.625 9.471-4.574 13.226z"/></svg>