<?xml version="1.0" encoding="iso-8859-1"?>
<!-- Generator: Adobe Illustrator 16.0.0, SVG Export Plug-In . SVG Version: 6.00 Build 0)  -->
<!DOCTYPE svg PUBLIC "-//W3C//DTD SVG 1.1//EN" "http://www.w3.org/Graphics/SVG/1.1/DTD/svg11.dtd">
<svg version="1.1" id="Capa_1" xmlns="http://www.w3.org/2000/svg" xmlns:xlink="http://www.w3.org/1999/xlink" x="0px" y="0px"
	 width="50.964px" height="50.965px" viewBox="0 0 124.964 124.965" style="enable-background:new 0 0 124.964 124.965;"
	 xml:space="preserve">
<g>
	<g>
		<path d="M73.324,29.052l-0.244-0.151c-0.179-0.109-0.365-0.181-0.551-0.265c-1.398-0.907-2.958-1.576-4.545-1.965l-3.22,3.242
			l-3.121-3.276c-0.012,0.002-0.021,0.002-0.032,0.005c-1.604,0.384-3.177,1.053-4.589,1.964
			c-3.309,0.368-10.409-1.546-11.979-3.333c-0.004-0.013-0.01-0.026-0.014-0.039c-0.386-0.971,0.136-4.451,6.397-8.612
			c-0.314-1.156-0.498-2.367-0.498-3.623c0-2.466,0.656-4.778,1.792-6.785c-1.32-0.46-2.824-0.373-4.134,0.374
			c-16.469,9.385-13.84,19.779-12.951,22.175c1.775,5.183,9.21,8.379,15.901,9.449v28.22c0,1.35,0.262,2.607,0.721,3.766
			c-0.035,0.259-0.059,0.521-0.059,0.789l-0.042,48.043c-0.003,3.275,2.648,5.933,5.924,5.935c0,0,0.003,0,0.006,0
			c3.271,0,5.926-2.651,5.928-5.924l0.036-41.235c0.237,0.01,0.475,0.029,0.713,0.029c0.046,0,0.093-0.006,0.139-0.006
			l-0.001,41.205c0,3.277,2.653,5.932,5.93,5.932c3.273,0,5.93-2.654,5.93-5.929l0.001-47.749c0.777-1.439,1.229-3.068,1.229-4.855
			v-20.09c2.444,4.378,3.086,10.773,0.084,21.471c-0.749,2.668,0.808,5.438,3.476,6.186c0.453,0.128,0.909,0.188,1.357,0.188
			c2.191,0,4.206-1.447,4.827-3.66C95.551,42.677,81.636,34.148,73.324,29.052z M64.795,55.488h-0.062l-3.116-4.264l3.116-20.833
			h0.062l3.116,20.833L64.795,55.488z"/>
		<circle cx="65.493" cy="12.923" r="12.923"/>
	</g>
</g>
<g>
</g>
<g>
</g>
<g>
</g>
<g>
</g>
<g>
</g>
<g>
</g>
<g>
</g>
<g>
</g>
<g>
</g>
<g>
</g>
<g>
</g>
<g>
</g>
<g>
</g>
<g>
</g>
<g>
</g>
</svg>
